#N canvas 846 0 839 900 10;
#X obj 501 237 hsl 128 15 0 32 0 0 empty empty Max\ Scale 10 5 0 10
-1 -258049 -262144 1700 1;
#X floatatom 449 235 7 0 0 0 - - -, f 7;
#X floatatom 448 96 7 0 0 0 - - -, f 7;
#X floatatom 448 115 7 0 0 0 - - -, f 7;
#X floatatom 448 134 7 0 0 0 - - -, f 7;
#X obj 86 258 polygon_smooth;
#X floatatom 448 35 7 0 0 0 - - -, f 7;
#X floatatom 448 54 7 0 0 0 - - -, f 7;
#X floatatom 448 73 7 0 0 0 - - -, f 7;
#X obj 38 -20 inlet;
#X obj 499 39 hsl 128 15 -1 1 0 0 empty empty X1 10 5 0 10 -1 -258049
-262144 3450 1;
#X obj 499 57 hsl 128 15 -1 1 0 0 empty empty Y1 10 5 0 10 -1 -258049
-262144 6050 1;
#X obj 499 75 hsl 128 15 -1 1 0 0 empty empty Z1 10 5 0 10 -1 -258049
-262144 4050 1;
#X obj 500 98 hsl 128 15 -1 1 0 0 empty empty X2 10 5 0 10 -1 -258049
-262144 4250 1;
#X obj 500 117 hsl 128 15 -1 1 0 0 empty empty Y2 10 5 0 10 -1 -258049
-262144 3150 1;
#X obj 500 136 hsl 128 15 -1 1 0 0 empty empty Z2 10 5 0 10 -1 -258049
-262144 10250 1;
#X obj 80 -19 inlet;
#X obj 122 -20 inlet;
#X obj 162 -18 inlet;
#X obj 206 -19 inlet;
#X obj 248 -20 inlet;
#X obj 288 -18 inlet;
#X obj 461 -20 inlet;
#X obj 552 314 inlet;
#X obj 592 316 inlet;
#X obj 250 440 outlet;
#X obj 684 -16 loadbang;
#X obj 684 6 t 0;
#X obj 692 213 inlet;
#X text 608 18 draw;
#X obj 124 322 spigot;
#X obj 637 316 inlet;
#X text 565 286 Corner Colors;
#X text 538 18 ll lr ur ul;
#X obj 250 408 primTri;
#X floatatom 448 157 7 0 0 0 - - -, f 7;
#X floatatom 448 176 7 0 0 0 - - -, f 7;
#X floatatom 448 195 7 0 0 0 - - -, f 7;
#X obj 500 159 hsl 128 15 -1 1 0 0 empty empty X3 10 5 0 10 -1 -258049
-262144 7600 1;
#X obj 500 178 hsl 128 15 -1 1 0 0 empty empty Y3 10 5 0 10 -1 -258049
-262144 6800 1;
#X obj 500 197 hsl 128 15 -1 1 0 0 empty empty Z3 10 5 0 10 -1 -258049
-262144 11450 1;
#X obj 330 -18 inlet;
#X obj 372 -19 inlet;
#X obj 413 -19 inlet;
#X obj 325 261 *;
#X obj 351 262 *;
#X obj 271 191 *;
#X obj 297 192 *;
#X obj 196 100 *;
#X obj 243 192 *;
#X obj 140 98 *;
#X obj 166 99 *;
#X obj 376 262 *;
#X obj 136 182 pack \$1 \$2 \$3;
#X obj 154 136 t f b;
#X obj 195 137 t f b;
#X obj 234 267 pack \$1 \$2 \$3;
#X obj 252 221 t f b;
#X obj 293 222 t f b;
#X obj 320 337 pack \$1 \$2 \$3;
#X obj 338 291 t f b;
#X obj 379 292 t f b;
#X connect 0 0 1 0;
#X connect 1 0 50 1;
#X connect 1 0 52 1;
#X connect 1 0 51 1;
#X connect 1 0 49 1;
#X connect 1 0 48 1;
#X connect 1 0 47 1;
#X connect 1 0 46 1;
#X connect 1 0 45 1;
#X connect 1 0 44 1;
#X connect 2 0 49 0;
#X connect 3 0 46 0;
#X connect 4 0 47 0;
#X connect 5 0 30 0;
#X connect 6 0 50 0;
#X connect 7 0 51 0;
#X connect 8 0 48 0;
#X connect 9 0 5 0;
#X connect 10 0 6 0;
#X connect 11 0 7 0;
#X connect 12 0 8 0;
#X connect 13 0 2 0;
#X connect 14 0 3 0;
#X connect 15 0 4 0;
#X connect 16 0 10 0;
#X connect 16 0 6 0;
#X connect 17 0 11 0;
#X connect 17 0 7 0;
#X connect 18 0 12 0;
#X connect 18 0 8 0;
#X connect 19 0 13 0;
#X connect 19 0 2 0;
#X connect 20 0 14 0;
#X connect 20 0 3 0;
#X connect 21 0 15 0;
#X connect 21 0 4 0;
#X connect 22 0 0 0;
#X connect 22 0 1 0;
#X connect 23 0 34 4;
#X connect 24 0 34 5;
#X connect 26 0 27 0;
#X connect 27 0 10 0;
#X connect 27 0 11 0;
#X connect 27 0 12 0;
#X connect 27 0 13 0;
#X connect 27 0 14 0;
#X connect 27 0 15 0;
#X connect 28 0 30 1;
#X connect 30 0 34 0;
#X connect 31 0 34 6;
#X connect 34 0 25 0;
#X connect 35 0 44 0;
#X connect 36 0 45 0;
#X connect 37 0 52 0;
#X connect 38 0 35 0;
#X connect 39 0 36 0;
#X connect 40 0 37 0;
#X connect 41 0 38 0;
#X connect 41 0 35 0;
#X connect 42 0 39 0;
#X connect 42 0 36 0;
#X connect 43 0 40 0;
#X connect 43 0 37 0;
#X connect 44 0 59 0;
#X connect 45 0 60 0;
#X connect 46 0 57 0;
#X connect 47 0 58 0;
#X connect 48 0 55 0;
#X connect 49 0 56 0;
#X connect 50 0 53 0;
#X connect 51 0 54 0;
#X connect 52 0 61 0;
#X connect 53 0 34 1;
#X connect 54 0 53 1;
#X connect 54 1 53 0;
#X connect 55 0 53 2;
#X connect 55 1 53 0;
#X connect 56 0 34 2;
#X connect 57 0 56 1;
#X connect 57 1 56 0;
#X connect 58 0 56 2;
#X connect 58 1 56 0;
#X connect 59 0 34 3;
#X connect 60 0 59 1;
#X connect 60 1 59 0;
#X connect 61 0 59 2;
#X connect 61 1 59 0;
#X coords 0 -1 1 1 203 250 1 438 16;
